<svg width="310" height="89" viewBox="0 0 310 89" fill="none" xmlns="http://www.w3.org/2000/svg">
<g clip-path="url(#clip0_226_278)">
<path d="M32.2819 67.7888L29.2938 68.684C28.9848 68.5789 28.6591 68.532 28.333 68.5459L28.2588 68.2981L30.1971 66.5678C30.2724 66.4828 30.3247 66.38 30.3491 66.2692C30.3735 66.1584 30.3693 66.0431 30.3367 65.9344C30.3041 65.8257 30.2443 65.7271 30.163 65.6479C30.0816 65.5688 29.9814 65.5117 29.8719 65.4821L27.5413 65.1364C27.3594 65.1096 27.1737 65.1293 27.0014 65.1935C26.8291 65.2576 26.6758 65.3643 26.5558 65.5036C26.4358 65.6428 26.3529 65.8102 26.3148 65.99C26.2767 66.1699 26.2847 66.3565 26.338 66.5324L27.0558 68.9286C26.776 69.0961 26.5298 69.3142 26.3299 69.5719L23.3411 70.4673C22.4949 70.7219 21.7842 71.3018 21.3649 72.0798C20.9456 72.8577 20.852 73.7702 21.1046 74.617L23.0178 81.0033C23.17 81.5114 23.5179 81.9382 23.9848 82.1899C24.4517 82.4416 24.9995 82.4974 25.5076 82.3452L37.0029 78.9014C37.511 78.7492 37.9378 78.4014 38.1895 77.9344C38.4412 77.4675 38.497 76.9197 38.3448 76.4116L36.4316 70.0254C36.177 69.1791 35.5971 68.4684 34.8192 68.0491C34.0412 67.6298 33.1287 67.5362 32.2819 67.7888ZM34.8455 69.8046L33.4667 70.2176C32.9585 70.3685 32.4113 70.3126 31.944 70.0621L31.013 69.5608L32.6645 69.0661C33.0598 68.9494 33.4816 68.9578 33.872 69.09C34.2624 69.2222 34.6024 69.4717 34.8455 69.8046ZM23.7238 71.7446L25.3753 71.2498L24.8732 72.1804C24.6207 72.6465 24.1943 72.9941 23.6868 73.1475L22.3081 73.5606C22.3281 73.1489 22.4749 72.7535 22.7284 72.4284C22.9818 72.1033 23.3294 71.8645 23.7238 71.7446ZM31.5113 79.1547L30.234 79.5374L29.66 77.6215C29.6093 77.4521 29.6279 77.2695 29.7118 77.1139C29.7957 76.9583 29.938 76.8423 30.1073 76.7916C30.2767 76.7408 30.4593 76.7594 30.615 76.8433C30.7706 76.9272 30.8865 77.0695 30.9373 77.2389L31.5113 79.1547ZM36.6202 77.6242L32.7885 78.7721L32.2145 76.8562C32.0623 76.3481 31.7145 75.9213 31.2475 75.6696C30.7806 75.418 30.2328 75.3621 29.7247 75.5143C29.2166 75.6665 28.7897 76.0144 28.5381 76.4813C28.2864 76.9482 28.2306 77.496 28.3828 78.0042L28.9568 79.92L25.125 81.0679C24.9556 81.1187 24.773 81.1001 24.6174 81.0162C24.4617 80.9323 24.3458 80.79 24.2951 80.6206L22.5732 74.873L24.0695 74.4248C24.4892 74.3001 24.8801 74.0935 25.2195 73.8168C25.5589 73.5401 25.8401 73.1989 26.0467 72.8129L27.2582 70.566C27.426 70.2548 27.7105 70.023 28.0492 69.9215C28.3879 69.8201 28.753 69.8573 29.0643 70.025L31.3116 71.2356C31.6964 71.4444 32.1189 71.5749 32.5545 71.6194C32.9901 71.6639 33.4302 71.6216 33.8494 71.4949L35.3457 71.0466L37.0676 76.7942C37.1183 76.9636 37.0997 77.1462 37.0158 77.3019C36.9319 77.4575 36.7896 77.5734 36.6202 77.6242ZM26.3403 75.8323C26.391 76.0017 26.3724 76.1843 26.2885 76.3399C26.2046 76.4955 26.0623 76.6115 25.893 76.6622L25.2543 76.8536C25.085 76.9043 24.9024 76.8857 24.7467 76.8018C24.5911 76.7179 24.4751 76.5756 24.4244 76.4063C24.3737 76.2369 24.3923 76.0543 24.4762 75.8986C24.56 75.743 24.7023 75.627 24.8717 75.5763L25.5103 75.385C25.6797 75.3342 25.8623 75.3529 26.0179 75.4368C26.1736 75.5206 26.2895 75.6629 26.3403 75.8323ZM27.1055 78.3868C27.1563 78.5562 27.1377 78.7388 27.0538 78.8944C26.9699 79.05 26.8276 79.166 26.6582 79.2167L26.0196 79.4081C25.8502 79.4588 25.6676 79.4402 25.512 79.3563C25.3564 79.2724 25.2404 79.1301 25.1897 78.9607C25.1389 78.7914 25.1575 78.6088 25.2414 78.4531C25.3253 78.2975 25.4676 78.1815 25.637 78.1308L26.2756 77.9395C26.445 77.8887 26.6276 77.9074 26.7832 77.9913C26.9389 78.0751 27.0548 78.2174 27.1055 78.3868ZM34.6424 73.3451C34.6931 73.5145 34.6745 73.6971 34.5906 73.8527C34.5067 74.0084 34.3645 74.1243 34.1951 74.1751L33.5565 74.3664C33.3871 74.4171 33.2045 74.3985 33.0488 74.3146C32.8932 74.2307 32.7773 74.0885 32.7265 73.9191C32.6758 73.7497 32.6944 73.5671 32.7783 73.4115C32.8622 73.2558 33.0044 73.1399 33.1738 73.0891L33.8124 72.8978C33.9818 72.8471 34.1644 72.8657 34.3201 72.9496C34.4757 73.0335 34.5916 73.1758 34.6424 73.3451ZM35.4077 75.8996C35.4584 76.069 35.4398 76.2516 35.3559 76.4072C35.272 76.5629 35.1297 76.6788 34.9604 76.7296L34.3217 76.9209C34.1524 76.9716 33.9698 76.953 33.8141 76.8691C33.6585 76.7852 33.5425 76.643 33.4918 76.4736C33.441 76.3042 33.4597 76.1216 33.5436 75.966C33.6274 75.8103 33.7697 75.6944 33.9391 75.6436L34.5777 75.4523C34.7471 75.4016 34.9297 75.4202 35.0853 75.5041C35.241 75.588 35.3569 75.7303 35.4077 75.8996ZM30.2367 72.5772C30.3124 72.8298 30.3114 73.0992 30.234 73.3513C30.1566 73.6034 30.0061 73.8268 29.8017 73.9934C29.5973 74.16 29.3481 74.2622 29.0855 74.2872C28.823 74.3121 28.559 74.2587 28.3268 74.1335C28.0947 74.0084 27.9049 73.8173 27.7814 73.5843C27.6579 73.3513 27.6062 73.0869 27.633 72.8246C27.6597 72.5622 27.7637 72.3137 27.9317 72.1104C28.0997 71.9071 28.3242 71.7582 28.5768 71.6826C28.9155 71.5811 29.2807 71.6183 29.592 71.7861C29.9033 71.9539 30.1352 72.2384 30.2367 72.5772Z" fill="white" fill-opacity="0.07"/>
</g>
<g clip-path="url(#clip1_226_278)">
<path d="M304.852 12.8599L301.065 11.5739C300.487 11.3803 299.868 11.3489 299.274 11.4831C298.68 11.6173 298.135 11.912 297.697 12.335C297.416 11.9191 297.007 11.6061 296.533 11.4433C295.947 11.2443 295.306 11.2863 294.751 11.5599C294.196 11.8336 293.772 12.3166 293.573 12.9025C293.463 13.2314 293.429 13.5808 293.473 13.9247L292.62 13.6351L294.764 7.32239C294.82 7.15497 294.808 6.97182 294.73 6.81324C294.652 6.65466 294.514 6.53363 294.347 6.47679C294.179 6.41994 293.996 6.43193 293.837 6.51012C293.679 6.58831 293.558 6.7263 293.501 6.89372L289.643 18.2566C289.586 18.4241 289.598 18.6072 289.676 18.7658C289.754 18.9244 289.892 19.0454 290.06 19.1022C290.227 19.1591 290.41 19.1471 290.569 19.0689C290.728 18.9907 290.849 18.8527 290.906 18.6853L291.334 17.4228L303.96 21.7095L303.531 22.972C303.474 23.1394 303.486 23.3226 303.564 23.4812C303.642 23.6397 303.78 23.7608 303.948 23.8176C304.115 23.8745 304.298 23.8625 304.457 23.7843C304.616 23.7061 304.737 23.5681 304.793 23.4007L306.937 17.0879C307.22 16.2508 307.159 15.3355 306.769 14.5429C306.378 13.7503 305.689 13.145 304.852 12.8599ZM298.099 14.0873C298.27 13.585 298.633 13.171 299.108 12.9365C299.584 12.7019 300.134 12.6659 300.636 12.8364L304.423 14.1225C304.926 14.293 305.34 14.6561 305.574 15.1318C305.809 15.6076 305.845 16.157 305.674 16.6593L305.246 17.9218L297.67 15.3498L298.099 14.0873ZM294.836 13.3312C294.899 13.1439 295.017 12.9797 295.174 12.8593C295.331 12.7389 295.52 12.6678 295.717 12.6549C295.914 12.6419 296.111 12.6878 296.282 12.7867C296.454 12.8856 296.592 13.0331 296.679 13.2105C296.767 13.3879 296.8 13.5872 296.774 13.7833C296.748 13.9794 296.665 14.1634 296.534 14.3121C296.404 14.4608 296.232 14.5675 296.041 14.6187C295.85 14.6698 295.648 14.6632 295.461 14.5996C295.21 14.5144 295.003 14.3328 294.886 14.0949C294.768 13.8571 294.75 13.5824 294.836 13.3312ZM291.763 16.1602L292.192 14.8977L304.817 19.1844L304.388 20.4469L291.763 16.1602Z" fill="white" fill-opacity="0.07"/>
</g>
<g clip-path="url(#clip2_226_278)">
<path d="M80.9166 39.5232C79.9194 38.9555 78.8224 38.5846 77.6853 38.4305C77.5132 38.0993 77.2736 37.8077 76.982 37.5745C76.6679 37.3248 76.3012 37.1498 75.9095 37.0629C75.5179 36.9759 75.1115 36.9792 74.7213 37.0725C73.8873 37.283 73.0784 37.5827 72.3086 37.9665C71.7622 37.7067 71.1518 37.6119 70.5523 37.6937C69.9528 37.7756 69.3902 38.0305 68.9333 38.4272C68.6886 38.6372 68.4426 38.8565 68.2 39.0825C67.9453 39.3219 67.686 39.5939 67.4273 39.8892C67.1032 40.2597 66.8719 40.7021 66.7525 41.1797C66.6331 41.6573 66.629 42.1564 66.7406 42.6359C66.7922 42.8622 66.8684 43.0822 66.968 43.2919C66.5816 44.0671 66.2794 44.8815 66.0666 45.7212C65.9729 46.1114 65.9694 46.5178 66.0564 46.9095C66.1434 47.3013 66.3186 47.668 66.5686 47.9819C66.8042 48.2765 67.0996 48.5178 67.4353 48.6899C67.5898 49.8253 67.9605 50.9206 68.5273 51.9165C68.7472 52.3116 69.0881 52.6257 69.4999 52.8125C69.9116 52.9994 70.3725 53.0492 70.8146 52.9545C71.272 52.8639 71.6881 52.6286 72.0014 52.2834C72.3148 51.9381 72.5087 51.5012 72.5546 51.0372C72.6791 50.1789 72.9047 49.3384 73.2266 48.5332C73.2266 48.5332 73.59 48.3092 73.756 48.1739C74.1557 47.8386 74.4394 47.3858 74.5666 46.8799C74.8749 46.7778 75.1551 46.6055 75.3853 46.3765C75.6095 46.1483 75.7791 45.8723 75.8813 45.5692C76.3855 45.4413 76.8366 45.1579 77.1706 44.7592C77.304 44.5932 77.5306 44.2292 77.5306 44.2292C78.3341 43.8986 79.1765 43.6716 80.0373 43.5539C80.5013 43.508 80.9382 43.314 81.2835 43.0007C81.6287 42.6873 81.8641 42.2712 81.9546 41.8139C82.0508 41.3712 82.0018 40.9093 81.8148 40.4967C81.6278 40.0841 81.3129 39.7427 80.9166 39.5232ZM71.226 50.8885C71.2099 51.0724 71.1344 51.246 71.0109 51.3832C70.8874 51.5203 70.7225 51.6134 70.5413 51.6485C70.3746 51.6865 70.2 51.6685 70.0444 51.5974C69.8889 51.5264 69.7611 51.4061 69.6806 51.2552C69.2797 50.553 68.9924 49.7918 68.8293 48.9999H71.4293C71.502 48.9999 71.5726 48.9852 71.6446 48.9812C71.454 49.5699 71.226 50.8859 71.226 50.8885ZM72.9126 47.1379C72.4941 47.4791 71.9707 47.6658 71.4306 47.6665H68.6666C68.4638 47.667 68.2636 47.6211 68.0812 47.5325C67.8988 47.4439 67.739 47.3149 67.614 47.1552C67.4893 46.999 67.4018 46.8163 67.3583 46.6212C67.3147 46.4261 67.3162 46.2236 67.3626 46.0292C67.4961 45.491 67.6745 44.9649 67.896 44.4565C68.1018 44.6176 68.3271 44.752 68.5666 44.8565L73.018 46.8059C73.0593 46.8252 73.1033 46.8325 73.1453 46.8485C73.0857 46.9581 73.0069 47.0561 72.9126 47.1379ZM74.436 45.4365C74.3246 45.5495 74.1809 45.6251 74.0248 45.6531C73.8686 45.681 73.7076 45.6599 73.564 45.5925L69.102 43.6385C68.8359 43.522 68.6014 43.3439 68.4177 43.1189C68.234 42.8939 68.1063 42.6285 68.0453 42.3445C67.9806 42.0693 67.9823 41.7826 68.0502 41.5081C68.1181 41.2336 68.2504 40.9792 68.436 40.7659C68.6666 40.5032 68.8946 40.2632 69.118 40.0532C69.3413 39.8432 69.5726 39.6365 69.8026 39.4399C70.0149 39.2551 70.2677 39.123 70.5406 39.0543C70.8135 38.9856 71.0987 38.9822 71.3731 39.0443C71.6476 39.1065 71.9035 39.2324 72.1201 39.412C72.3368 39.5916 72.508 39.8197 72.62 40.0779L74.596 44.5379C74.6621 44.6865 74.6822 44.8515 74.6537 45.0117C74.6251 45.1719 74.5493 45.3198 74.436 45.4365ZM76.6666 42.4305C76.6662 42.9705 76.4797 43.4939 76.1386 43.9125C76.0607 44.0028 75.9681 44.0792 75.8646 44.1385C75.8473 44.0919 75.8346 44.0439 75.8146 43.9979L73.8393 39.5385C73.7395 39.3121 73.6137 39.098 73.4646 38.9005C73.9705 38.6796 74.4939 38.5012 75.0293 38.3672C75.2238 38.3207 75.4262 38.3191 75.6214 38.3627C75.8165 38.4062 75.9991 38.4937 76.1553 38.6185C76.3153 38.7438 76.4446 38.9041 76.5332 39.087C76.6219 39.2699 76.6675 39.4706 76.6666 39.6739V42.4305ZM80.6486 41.5412C80.6136 41.7224 80.5204 41.8872 80.3833 42.0108C80.2462 42.1343 80.0725 42.2098 79.8886 42.2259C79.8886 42.2259 78.57 42.4539 77.9813 42.6459C77.986 42.5739 78 42.5032 78 42.4305V39.8305C78.7919 39.9936 79.5531 40.2809 80.2553 40.6819C80.4057 40.7625 80.5256 40.8901 80.5966 41.0453C80.6677 41.2005 80.6859 41.3747 80.6486 41.5412Z" fill="white" fill-opacity="0.07"/>
</g>
<g clip-path="url(#clip3_226_278)">
<path d="M141.557 10.3366C141.5 10.5041 141.379 10.6422 141.221 10.7206C141.062 10.7989 140.879 10.8111 140.712 10.7545L140.08 10.5408C139.913 10.4842 139.775 10.3633 139.696 10.2048C139.618 10.0463 139.606 9.86316 139.662 9.69568C139.719 9.52819 139.84 9.39007 139.998 9.3117C140.157 9.23334 140.34 9.22114 140.508 9.2778L141.139 9.49144C141.307 9.5481 141.445 9.66897 141.523 9.82747C141.601 9.98596 141.614 10.1691 141.557 10.3366ZM144.297 10.5596L143.665 10.346C143.498 10.2893 143.315 10.3015 143.156 10.3799C142.998 10.4583 142.877 10.5964 142.82 10.7639C142.763 10.9313 142.776 11.1145 142.854 11.273C142.932 11.4315 143.07 11.5523 143.238 11.609L143.869 11.8226C144.037 11.8793 144.22 11.8671 144.378 11.7887C144.537 11.7104 144.658 11.5723 144.715 11.4048C144.771 11.2373 144.759 11.0541 144.681 10.8957C144.602 10.7372 144.464 10.6163 144.297 10.5596ZM140.285 12.0175L139.653 11.8038C139.486 11.7472 139.302 11.7594 139.144 11.8377C138.985 11.9161 138.865 12.0542 138.808 12.2217C138.751 12.3892 138.763 12.5723 138.842 12.7308C138.92 12.8893 139.058 13.0102 139.226 13.0669L139.857 13.2805C140.025 13.3372 140.208 13.325 140.366 13.2466C140.525 13.1682 140.646 13.0301 140.702 12.8626C140.759 12.6951 140.747 12.512 140.669 12.3535C140.59 12.195 140.452 12.0741 140.285 12.0175ZM143.442 13.0857L142.811 12.872C142.643 12.8154 142.46 12.8276 142.301 12.9059C142.143 12.9843 142.022 13.1224 141.965 13.2899C141.909 13.4574 141.921 13.6405 141.999 13.799C142.078 13.9575 142.216 14.0784 142.383 14.135L143.015 14.3487C143.182 14.4053 143.365 14.3931 143.524 14.3148C143.682 14.2364 143.803 14.0983 143.86 13.9308C143.917 13.7633 143.904 13.5802 143.826 13.4217C143.748 13.2632 143.61 13.1423 143.442 13.0857ZM142.848 4.43937L142.217 4.22573C142.049 4.16907 141.866 4.18126 141.708 4.25963C141.549 4.338 141.428 4.47612 141.372 4.6436C141.315 4.81109 141.327 4.99422 141.405 5.15272C141.484 5.31121 141.622 5.43209 141.789 5.48875L142.421 5.70238C142.588 5.75904 142.772 5.74685 142.93 5.66848C143.089 5.59012 143.209 5.452 143.266 5.28451C143.323 5.11703 143.311 4.93389 143.232 4.7754C143.154 4.6169 143.016 4.49603 142.848 4.43937ZM146.006 5.50755L145.374 5.29391C145.207 5.23725 145.024 5.24945 144.865 5.32781C144.707 5.40618 144.586 5.5443 144.529 5.71179C144.472 5.87927 144.485 6.06241 144.563 6.2209C144.641 6.3794 144.779 6.50027 144.947 6.55693L145.578 6.77057C145.746 6.82723 145.929 6.81503 146.088 6.73667C146.246 6.6583 146.367 6.52018 146.424 6.3527C146.48 6.18521 146.468 6.00207 146.39 5.84358C146.311 5.68508 146.173 5.56421 146.006 5.50755ZM141.994 6.9654L141.362 6.75177C141.195 6.69511 141.012 6.7073 140.853 6.78567C140.695 6.86403 140.574 7.00215 140.517 7.16964C140.46 7.33712 140.473 7.52026 140.551 7.67876C140.629 7.83725 140.767 7.95812 140.935 8.01478L141.566 8.22842C141.734 8.28508 141.917 8.27289 142.075 8.19452C142.234 8.11615 142.355 7.97804 142.412 7.81055C142.468 7.64306 142.456 7.45993 142.378 7.30143C142.299 7.14294 142.161 7.02206 141.994 6.9654ZM145.151 8.03359L144.52 7.81995C144.352 7.76329 144.169 7.77548 144.011 7.85385C143.852 7.93222 143.731 8.07034 143.675 8.23782C143.618 8.40531 143.63 8.58844 143.708 8.74694C143.787 8.90543 143.925 9.02631 144.092 9.08297L144.724 9.2966C144.891 9.35326 145.075 9.34107 145.233 9.2627C145.392 9.18434 145.512 9.04622 145.569 8.87873C145.626 8.71125 145.614 8.52811 145.535 8.36962C145.457 8.21112 145.319 8.09025 145.151 8.03359ZM153.147 11.4424L151.224 17.126C150.94 17.9627 150.336 18.6526 149.544 19.0443C148.751 19.436 147.836 19.4975 146.999 19.2153L138.158 16.2244C137.321 15.9402 136.631 15.3357 136.239 14.5435C135.848 13.7513 135.786 12.8361 136.068 11.9987L139.059 3.15755C139.343 2.32076 139.948 1.63086 140.74 1.23917C141.532 0.847482 142.447 0.785991 143.285 1.06818L147.074 2.35C147.911 2.6342 148.601 3.23869 148.992 4.03088C149.384 4.82307 149.445 5.73827 149.163 6.57573L151.058 7.21664C151.895 7.50084 152.584 8.10533 152.976 8.89752C153.368 9.68971 153.429 10.6049 153.147 11.4424ZM138.585 14.9614L144.268 16.8841L147.9 6.14846C148.07 5.646 148.034 5.0966 147.799 4.62111C147.563 4.14562 147.149 3.783 146.647 3.61302L142.858 2.3312C142.355 2.16122 141.806 2.19781 141.33 2.4329C140.855 2.668 140.492 3.08236 140.322 3.58482L137.331 12.4259C137.161 12.9284 137.198 13.4778 137.433 13.9533C137.668 14.4288 138.082 14.7914 138.585 14.9614ZM151.884 11.0151C152.054 10.5126 152.018 9.96324 151.782 9.48775C151.547 9.01226 151.133 8.64964 150.631 8.47966L148.736 7.83875L145.531 17.3114L147.426 17.9523C147.928 18.1223 148.478 18.0857 148.953 17.8506C149.429 17.6155 149.791 17.2011 149.961 16.6987L151.884 11.0151ZM149.349 12.2687C149.224 12.2265 149.089 12.2222 148.962 12.2565C148.835 12.2907 148.72 12.362 148.633 12.4612C148.547 12.5604 148.491 12.6832 148.474 12.8139C148.457 12.9446 148.479 13.0775 148.537 13.1957C148.596 13.3139 148.688 13.4121 148.802 13.4779C148.917 13.5437 149.048 13.5742 149.179 13.5654C149.311 13.5567 149.437 13.5091 149.541 13.4287C149.646 13.3483 149.724 13.2388 149.767 13.1139C149.823 12.9464 149.811 12.7632 149.733 12.6047C149.654 12.4463 149.516 12.3254 149.349 12.2687ZM148.494 14.7948C148.369 14.7525 148.235 14.7482 148.107 14.7825C147.98 14.8168 147.866 14.888 147.779 14.9872C147.692 15.0864 147.637 15.2092 147.619 15.3399C147.602 15.4707 147.624 15.6035 147.683 15.7217C147.741 15.8399 147.834 15.9382 147.948 16.004C148.062 16.0698 148.193 16.1002 148.325 16.0915C148.456 16.0827 148.582 16.0351 148.687 15.9547C148.791 15.8744 148.87 15.7648 148.912 15.6399C148.969 15.4724 148.957 15.2893 148.878 15.1308C148.8 14.9723 148.662 14.8514 148.494 14.7948ZM150.203 9.74268C150.078 9.70043 149.944 9.69616 149.816 9.73042C149.689 9.76468 149.575 9.83592 149.488 9.93515C149.401 10.0344 149.346 10.1571 149.329 10.2879C149.311 10.4186 149.334 10.5515 149.392 10.6697C149.45 10.7879 149.543 10.8861 149.657 10.9519C149.771 11.0177 149.902 11.0481 150.034 11.0394C150.165 11.0306 150.291 10.983 150.396 10.9027C150.501 10.8223 150.579 10.7127 150.621 10.5878C150.678 10.4203 150.666 10.2372 150.587 10.0787C150.509 9.92021 150.371 9.79934 150.203 9.74268Z" fill="white" fill-opacity="0.07"/>
</g>
<g clip-path="url(#clip4_226_278)">
<path d="M246.273 46.6925C246.055 46.1433 245.658 45.6838 245.146 45.388C245.626 44.6797 246.042 43.9299 246.389 43.1477C246.511 42.8621 246.564 42.5522 246.546 42.2424C246.527 41.9326 246.437 41.6313 246.282 41.3623C246.127 41.0933 245.912 40.8639 245.654 40.6922C245.395 40.5205 245.1 40.4111 244.792 40.3727C244.708 40.3617 244.458 40.3319 244.112 40.3066C244.437 39.9109 244.667 39.4452 244.783 38.946C244.803 38.8607 244.806 38.7723 244.792 38.6859C244.778 38.5994 244.747 38.5165 244.701 38.442C244.655 38.3675 244.595 38.3027 244.524 38.2515C244.453 38.2002 244.372 38.1634 244.287 38.1433C244.202 38.1231 244.114 38.1199 244.027 38.1339C243.941 38.1479 243.858 38.1788 243.783 38.2248C243.709 38.2708 243.644 38.331 243.593 38.402C243.541 38.4731 243.505 38.5535 243.484 38.6387C243.411 38.9526 243.264 39.2443 243.055 39.4893C243.03 39.2129 242.96 38.9424 242.85 38.6879C242.653 38.2871 242.359 37.9421 241.994 37.6844C241.629 37.4267 241.206 37.2645 240.763 37.2126C240.285 37.1236 239.792 37.1738 239.342 37.3572C239.006 36.9259 238.545 36.6102 238.021 36.4539C237.369 36.2079 236.647 36.2301 236.012 36.5157C235.684 36.6792 235.393 36.908 235.157 37.188C234.922 37.468 234.745 37.7933 234.64 38.1438C234.469 38.7047 234.483 39.3056 234.68 39.8579C234.196 40.0882 233.776 40.4329 233.455 40.862C233.134 41.2912 232.923 41.792 232.839 42.3211C232.253 42.4669 231.735 42.8087 231.371 43.2897C231.006 43.7707 230.817 44.3619 230.835 44.9652C230.86 46.6183 231.302 48.2383 232.12 49.6753C232.914 51.0189 234.204 51.9967 235.712 52.3978L238.107 53.0462C239.611 53.4607 241.218 53.2671 242.581 52.5072C244.013 51.6792 245.212 50.5034 246.068 49.0888C246.287 48.7333 246.42 48.3313 246.456 47.9151C246.491 47.4989 246.429 47.0801 246.273 46.6925ZM244.626 41.6952C244.729 41.7088 244.828 41.746 244.915 41.8039C245.001 41.8619 245.073 41.9391 245.125 42.0295C245.176 42.1198 245.206 42.2209 245.213 42.3248C245.219 42.4288 245.201 42.5327 245.16 42.6285C244.796 43.4371 244.353 44.2073 243.837 44.9279L242.189 44.4818L243.246 43.875C243.396 43.7854 243.505 43.6404 243.549 43.4713C243.593 43.3021 243.569 43.1224 243.482 42.9708C243.395 42.8192 243.252 42.7078 243.084 42.6607C242.916 42.6136 242.735 42.6344 242.582 42.7188L240.369 43.9892L239.372 43.7194C239.417 43.3682 239.542 43.0322 239.739 42.7378C239.936 42.4435 240.198 42.1989 240.505 42.0232C240.855 41.8202 242.112 41.3532 244.626 41.6952ZM235.915 38.5353C235.967 38.3592 236.054 38.1955 236.171 38.0542C236.289 37.913 236.433 37.7971 236.597 37.7136C236.916 37.5892 237.269 37.5898 237.588 37.7152C237.748 37.7516 237.899 37.8214 238.03 37.9202C238.161 38.0189 238.27 38.1444 238.35 38.2882C238.41 38.4087 238.496 38.5151 238.6 38.6004C238.705 38.6857 238.826 38.748 238.956 38.7832C239.086 38.8177 239.222 38.8245 239.355 38.8031C239.488 38.7817 239.615 38.7327 239.727 38.6591C239.851 38.5835 239.988 38.5332 240.131 38.5111C240.274 38.489 240.42 38.4956 240.561 38.5303C240.784 38.55 240.998 38.6247 241.185 38.7476C241.372 38.8706 241.526 39.038 241.632 39.2348C241.76 39.5378 241.778 39.8758 241.683 40.1906C241.672 40.2325 241.647 40.3238 241.647 40.3238C240.709 40.4002 239.823 40.7821 239.123 41.4108C238.847 40.8198 238.401 40.3246 237.842 39.9887C237.283 39.6527 236.636 39.4913 235.984 39.5251C235.839 39.2153 235.814 38.8624 235.915 38.5353ZM234.2 42.3194C234.339 41.8074 234.675 41.3714 235.135 41.1073C235.595 40.8433 236.141 40.7728 236.653 40.9114C237.165 41.05 237.601 41.3863 237.865 41.8464C238.129 42.3064 238.2 42.8525 238.061 43.3645L234.2 42.3194ZM244.93 48.3933C244.187 49.613 243.153 50.6289 241.92 51.3494C240.863 51.9355 239.619 52.0827 238.455 51.7592L236.06 51.1108C234.892 50.8028 233.892 50.048 233.275 49.0093C232.573 47.7652 232.193 46.3662 232.167 44.9383C232.162 44.7279 232.206 44.5192 232.296 44.329C232.387 44.1389 232.52 43.9726 232.687 43.8435C232.849 43.7155 233.039 43.6274 233.241 43.5862C233.443 43.545 233.653 43.5519 233.852 43.6064L244.148 46.3935C244.348 46.4465 244.533 46.546 244.688 46.6839C244.843 46.8217 244.963 46.9941 245.038 47.187C245.116 47.3826 245.146 47.5936 245.127 47.803C245.109 48.0125 245.041 48.2147 244.93 48.3933Z" fill="white" fill-opacity="0.07"/>
</g>
<g clip-path="url(#clip5_226_278)">
<path d="M166.898 73.1405C167.261 72.2273 167.314 71.2204 167.05 70.2739C167.003 70.0761 166.911 69.8918 166.781 69.7351C166.651 69.5784 166.488 69.4534 166.302 69.3698C166.117 69.2861 165.915 69.246 165.711 69.2525C165.508 69.259 165.309 69.3119 165.129 69.4072C164.579 69.6668 164.091 70.0428 163.699 70.5092C163.308 70.9755 163.022 71.5212 162.862 72.1086C162.449 71.6586 161.964 71.2814 161.425 70.9926C161.265 70.9214 161.084 70.916 160.92 70.9777C160.756 71.0393 160.623 71.163 160.549 71.3219C160.476 71.4809 160.468 71.6625 160.527 71.8273C160.586 71.9921 160.708 72.127 160.866 72.2028C161.776 72.7381 162.495 73.5447 162.923 74.5095L161.401 75.0865C159.972 75.6785 158.835 76.8127 158.241 78.2406C157.646 79.6685 157.642 81.2739 158.228 82.7052C159.451 86.2343 164.292 88.0877 166.91 85.3927C167.095 85.146 167.347 84.9578 167.636 84.8508C167.925 84.7437 168.238 84.7223 168.539 84.7891C169.035 84.8702 169.544 84.8237 170.017 84.6539C176.348 82.052 173.585 72.3098 166.898 73.1405ZM164.299 71.9689C164.622 71.3628 165.133 70.8773 165.754 70.5847C165.946 71.2432 165.92 71.9456 165.682 72.5885C165.358 73.1945 164.847 73.68 164.226 73.9729C164.034 73.3144 164.06 72.6117 164.299 71.9689ZM169.544 83.4071C169.266 83.5007 168.967 83.5201 168.679 83.4635C168.157 83.3785 167.623 83.4292 167.126 83.6106C166.662 83.7988 166.253 84.0993 165.934 84.4852C163.923 86.4365 160.391 84.8379 159.475 82.2327C159.014 81.1321 159.007 79.8936 159.456 78.7881C159.906 77.6826 160.775 76.8 161.873 76.3333L166.237 74.6795C171.674 72.8478 174.831 81.1771 169.544 83.4071Z" fill="white" fill-opacity="0.07"/>
</g>
<g clip-path="url(#clip6_226_278)">
<path d="M234.251 17.5102C234.388 17.6336 234.55 17.7253 234.726 17.7785C234.902 17.8318 235.088 17.8453 235.27 17.8182C236.427 17.6493 240.312 16.9753 241.749 15.3937C242.435 14.6349 242.816 13.6486 242.818 12.6254C242.82 11.6021 242.443 10.6143 241.759 9.85291L243.319 8.13349C243.391 8.05131 243.428 7.94414 243.422 7.83507C243.416 7.726 243.367 7.62374 243.286 7.55033C243.205 7.47692 243.098 7.43822 242.989 7.44258C242.88 7.44693 242.777 7.49399 242.702 7.57362L241.142 9.29304C240.318 8.68558 239.298 8.4052 238.28 8.5061C237.261 8.60701 236.316 9.08204 235.627 9.83936C234.171 11.444 233.893 15.3638 233.841 16.5268C233.833 16.7109 233.865 16.8945 233.936 17.0646C234.007 17.2346 234.115 17.3868 234.251 17.5102ZM236.242 10.401C236.782 9.80804 237.519 9.43187 238.316 9.3427C239.113 9.25353 239.915 9.45745 240.573 9.91641L236.759 14.1198C236.687 14.202 236.65 14.3092 236.657 14.4183C236.663 14.5273 236.712 14.6296 236.793 14.703C236.874 14.7764 236.98 14.8151 237.089 14.8108C237.198 14.8064 237.302 14.7593 237.376 14.6797L241.192 10.4762C241.713 11.0862 241.994 11.8649 241.982 12.6668C241.971 13.4687 241.668 14.239 241.13 14.8339C240.136 15.9284 237.287 16.6835 235.149 16.9939C235.088 17.0028 235.027 16.9982 234.968 16.9805C234.91 16.9628 234.856 16.9324 234.81 16.8915C234.765 16.8506 234.729 16.8002 234.705 16.7438C234.681 16.6874 234.67 16.6265 234.672 16.5653C234.771 14.3132 235.236 11.5115 236.244 10.4009L236.242 10.401Z" fill="white" fill-opacity="0.07"/>
</g>
<g clip-path="url(#clip7_226_278)">
<path d="M297.624 62.3961C297.483 62.279 297.316 62.1948 297.138 62.1496C296.96 62.1045 296.774 62.0994 296.593 62.1348C295.445 62.3563 291.594 63.2067 290.231 64.8522C289.58 65.6415 289.244 66.6441 289.289 67.6664C289.334 68.6887 289.756 69.6582 290.473 70.3877L288.993 72.1764C288.925 72.2618 288.893 72.3706 288.904 72.4792C288.916 72.5879 288.969 72.6878 289.053 72.7575C289.138 72.8271 289.246 72.8609 289.355 72.8516C289.463 72.8423 289.564 72.7906 289.635 72.7076L291.115 70.9188C291.966 71.4881 292.998 71.7217 294.011 71.5745C295.024 71.4272 295.947 70.9096 296.6 70.1216C297.981 68.4523 298.08 64.5239 298.079 63.3597C298.079 63.1755 298.038 62.9935 297.96 62.8269C297.881 62.6602 297.767 62.5131 297.624 62.3961ZM295.96 69.5886C295.448 70.2056 294.728 70.615 293.936 70.7404C293.144 70.8658 292.333 70.6987 291.655 70.2702L295.274 65.8972C295.342 65.8119 295.374 65.7031 295.363 65.5945C295.351 65.4858 295.298 65.3859 295.214 65.3162C295.129 65.2466 295.021 65.2128 294.912 65.2221C294.804 65.2314 294.703 65.2831 294.632 65.3661L291.011 69.7392C290.464 69.1536 290.148 68.3885 290.122 67.5869C290.097 66.7853 290.365 66.002 290.875 65.3832C291.818 64.2445 294.629 63.3603 296.751 62.9528C296.811 62.9411 296.873 62.9429 296.933 62.9579C296.992 62.9729 297.047 63.0008 297.095 63.0396C297.142 63.0784 297.18 63.1271 297.206 63.1824C297.233 63.2376 297.247 63.298 297.247 63.3592C297.251 65.6134 296.914 68.4334 295.958 69.5888L295.96 69.5886Z" fill="white" fill-opacity="0.07"/>
</g>
<g clip-path="url(#clip8_226_278)">
<path d="M4.39202 42.0595C4.22393 42.1343 4.07452 42.2454 3.95454 42.3848C3.83456 42.5242 3.74701 42.6886 3.69819 42.8659C3.38427 43.9922 2.42769 47.818 3.29239 49.7719C3.70831 50.7068 4.45591 51.4545 5.39082 51.8705C6.32574 52.2866 7.38164 52.3414 8.35463 52.0245L9.29537 54.147C9.34137 54.2461 9.42445 54.3232 9.52672 54.3616C9.62899 54.4001 9.74226 54.3968 9.84215 54.3525C9.94203 54.3082 10.0205 54.2265 10.0607 54.1249C10.1009 54.0233 10.0996 53.91 10.0571 53.8094L9.11637 51.6869C10.0054 51.1793 10.6747 50.3601 10.9948 49.3878C11.3149 48.4154 11.2631 47.3588 10.8495 46.4224C9.97135 44.442 6.49975 42.6007 5.45712 42.0828C5.29237 42.0003 5.11137 41.9554 4.92718 41.9514C4.74299 41.9474 4.56021 41.9843 4.39202 42.0595ZM10.0869 46.7575C10.4105 47.4913 10.456 48.3178 10.2149 49.0826C9.97386 49.8475 9.46265 50.4985 8.77675 50.9141L6.47693 45.7252C6.43093 45.6261 6.34785 45.549 6.24559 45.5106C6.14332 45.4722 6.03004 45.4754 5.93016 45.5197C5.83028 45.564 5.75178 45.6457 5.71157 45.7473C5.67137 45.8489 5.67267 45.9622 5.71519 46.0628L8.01426 51.2537C7.2457 51.4828 6.42 51.4244 5.69137 51.0893C4.96273 50.7542 4.38097 50.1653 4.05473 49.4327C3.45605 48.0812 3.919 45.1702 4.50072 43.0893C4.51712 43.0304 4.54631 42.9757 4.58621 42.9293C4.6261 42.8829 4.67574 42.8459 4.73158 42.8208C4.78742 42.7957 4.8481 42.7833 4.90929 42.7843C4.97049 42.7854 5.0307 42.7999 5.08565 42.8269C7.10481 43.8291 9.47849 45.3884 10.0862 46.7594L10.0869 46.7575Z" fill="white" fill-opacity="0.07"/>
</g>
<g clip-path="url(#clip9_226_278)">
<path d="M119.806 49.4733C119.638 49.5481 119.489 49.6592 119.369 49.7986C119.249 49.9381 119.161 50.1024 119.112 50.2797C118.798 51.406 117.842 55.2318 118.706 57.1857C119.122 58.1206 119.87 58.8683 120.805 59.2844C121.74 59.7004 122.796 59.7552 123.769 59.4383L124.709 61.5608C124.755 61.6599 124.838 61.737 124.941 61.7754C125.043 61.8139 125.156 61.8106 125.256 61.7663C125.356 61.7221 125.435 61.6403 125.475 61.5388C125.515 61.4372 125.514 61.3239 125.471 61.2232L124.53 59.1007C125.419 58.5931 126.089 57.774 126.409 56.8016C126.729 55.8292 126.677 54.7727 126.263 53.8362C125.385 51.8558 121.914 50.0145 120.871 49.4966C120.706 49.4141 120.525 49.3693 120.341 49.3652C120.157 49.3612 119.974 49.3981 119.806 49.4733ZM125.501 54.1713C125.825 54.9051 125.87 55.7316 125.629 56.4965C125.388 57.2613 124.877 57.9123 124.191 58.3279L121.891 53.139C121.845 53.0399 121.762 52.9629 121.66 52.9244C121.557 52.886 121.444 52.8893 121.344 52.9335C121.244 52.9778 121.166 53.0595 121.126 53.1611C121.085 53.2627 121.087 53.376 121.129 53.4766L123.428 58.6675C122.66 58.8966 121.834 58.8382 121.105 58.5031C120.377 58.168 119.795 57.5792 119.469 56.8465C118.87 55.495 119.333 52.5841 119.915 50.5032C119.931 50.4442 119.96 50.3896 120 50.3431C120.04 50.2967 120.09 50.2597 120.146 50.2346C120.201 50.2096 120.262 50.1971 120.323 50.1982C120.384 50.1992 120.445 50.2137 120.5 50.2407C122.519 51.2429 124.892 52.8022 125.5 54.1733L125.501 54.1713Z" fill="white" fill-opacity="0.07"/>
</g>
<g clip-path="url(#clip10_226_278)">
<path d="M29.4243 3.42533C29.0838 3.08742 28.6587 2.84734 28.1935 2.73028C27.7283 2.61322 27.2402 2.62348 26.7803 2.76L16.5561 5.80026C16.0963 5.93719 15.6819 6.19531 15.3563 6.54753C15.0306 6.89976 14.8057 7.33312 14.7052 7.80217C14.601 8.26549 14.6253 8.74847 14.7755 9.199C14.9256 9.64954 15.1959 10.0505 15.5572 10.3587C16.6292 11.2222 17.8842 11.8293 19.2266 12.1339C20.5689 12.4384 21.9631 12.4323 23.3027 12.1159L25.2095 18.5284L22.6535 19.2885C22.484 19.3389 22.3415 19.4546 22.2573 19.61C22.1731 19.7655 22.1541 19.9481 22.2045 20.1175C22.2549 20.287 22.3705 20.4295 22.526 20.5137C22.6815 20.5979 22.864 20.6169 23.0335 20.5665L29.4236 18.6664C29.5931 18.616 29.7356 18.5003 29.8198 18.3448C29.904 18.1894 29.923 18.0068 29.8726 17.8373C29.8222 17.6679 29.7066 17.5253 29.5511 17.4411C29.3956 17.3569 29.2131 17.3379 29.0436 17.3883L26.4876 18.1484L24.5807 11.7359C25.8755 11.2689 27.0465 10.5122 28.0044 9.5237C28.9622 8.53518 29.6816 7.34091 30.1076 6.03203C30.2418 5.5765 30.2491 5.09296 30.1287 4.63359C30.0083 4.17421 29.7647 3.75644 29.4243 3.42533ZM16.9361 7.07828L27.1603 4.03802C27.4993 3.93723 27.8644 3.97522 28.1753 4.14363C28.4863 4.31203 28.7176 4.59706 28.8184 4.93602L16.0381 8.73634C15.9373 8.39739 15.9753 8.03228 16.1437 7.72133C16.3121 7.41039 16.5972 7.17908 16.9361 7.07828ZM23.5683 10.6703C22.4858 10.9963 21.3465 11.0893 20.2254 10.9431C19.1043 10.797 18.0269 10.415 17.0642 9.82226L28.5524 6.40615C28.0701 7.42874 27.3766 8.33749 26.5175 9.07249C25.6584 9.80749 24.6532 10.352 23.5683 10.6703Z" fill="white" fill-opacity="0.07"/>
</g>
<defs>
<clipPath id="clip0_226_278">
<rect width="16" height="16" fill="white" transform="translate(19 67.5918) rotate(-16.6772)"/>
</clipPath>
<clipPath id="clip1_226_278">
<rect width="16" height="16" fill="white" transform="translate(294.144 5) rotate(18.7538)"/>
</clipPath>
<clipPath id="clip2_226_278">
<rect width="16" height="16" fill="white" transform="translate(66 37)"/>
</clipPath>
<clipPath id="clip3_226_278">
<rect width="16" height="16" fill="white" transform="translate(140.127) rotate(18.6905)"/>
</clipPath>
<clipPath id="clip4_226_278">
<rect width="16" height="16" fill="white" transform="translate(233.368 35.1875) rotate(15.1469)"/>
</clipPath>
<clipPath id="clip5_226_278">
<rect width="16" height="16" fill="white" transform="translate(154.684 73.3542) rotate(-20.7554)"/>
</clipPath>
<clipPath id="clip6_226_278">
<rect width="10" height="10" fill="white" transform="translate(243.891 17.4053) rotate(177.217)"/>
</clipPath>
<clipPath id="clip7_226_278">
<rect width="10" height="10" fill="white" transform="translate(288 62.9404) rotate(-5.39562)"/>
</clipPath>
<clipPath id="clip8_226_278">
<rect width="10" height="10" fill="white" transform="translate(0.585999 50.916) rotate(-68.9039)"/>
</clipPath>
<clipPath id="clip9_226_278">
<rect width="10" height="10" fill="white" transform="translate(116 58.3298) rotate(-68.9039)"/>
</clipPath>
<clipPath id="clip10_226_278">
<rect width="16" height="16" fill="white" transform="translate(14 6.5603) rotate(-16.5603)"/>
</clipPath>
</defs>
</svg>
