<svg width="20" height="20" viewBox="0 0 20 20" fill="none" xmlns="http://www.w3.org/2000/svg">
<g clip-path="url(#clip0_166_180)">
<path d="M14.3716 5.16082C15.2 4.25395 15.7084 3.1007 15.8191 1.87748C15.8513 1.62525 15.8253 1.36901 15.7431 1.12838C15.6609 0.887747 15.5248 0.669104 15.3451 0.489187C15.1655 0.30927 14.947 0.172848 14.7065 0.090366C14.466 0.00788374 14.2098 -0.0184725 13.9575 0.0133148C13.1988 0.0728997 12.462 0.296259 11.7979 0.668003C11.1339 1.03975 10.5583 1.55104 10.1108 2.16665C9.82753 1.45779 9.42693 0.801679 8.92582 0.225815C8.77032 0.0716724 8.5604 -0.0150788 8.34145 -0.0156829C8.1225 -0.0162869 7.9121 0.0693046 7.75576 0.222587C7.59941 0.375869 7.50967 0.584526 7.50594 0.803447C7.5022 1.02237 7.58478 1.23396 7.73582 1.39248C8.56195 2.42118 9.04538 3.68265 9.11832 4.99999H7.08332C5.15073 5.05904 3.32028 5.88143 1.99271 7.2871C0.665132 8.69277 -0.0514003 10.5672 -1.72891e-05 12.5C-0.134184 17.1667 4.70332 21.4775 8.95832 19.4875C9.28328 19.2809 9.66098 19.1724 10.0461 19.1753C10.4312 19.1781 10.8072 19.292 11.1291 19.5033C11.6732 19.8179 12.2883 19.9888 12.9166 20C21.47 19.7633 22.555 7.15166 14.3716 5.16082ZM11.8525 2.63999C12.4989 2.07473 13.3106 1.73335 14.1666 1.66665C14.0983 2.52095 13.7574 3.33072 13.1941 3.97665C12.5472 4.54156 11.7354 4.88288 10.8791 4.94999C10.9468 4.09538 11.2882 3.28534 11.8525 2.63999ZM12.9166 18.3333C12.5494 18.3192 12.1921 18.2098 11.88 18.0158C11.3079 17.6855 10.6605 17.5078 9.99998 17.5C9.37458 17.5145 8.76261 17.6843 8.21915 17.9942C5.00415 19.3842 1.58332 15.9508 1.66665 12.5C1.61526 11.0092 2.15621 9.55867 3.17123 8.46556C4.18626 7.37245 5.59279 6.72569 7.08332 6.66666H12.9166C20.0833 6.93416 20.0833 18.0683 12.9166 18.3333Z" fill="white" fill-opacity="0.3"/>
</g>
<defs>
<clipPath id="clip0_166_180">
<rect width="20" height="20" fill="white"/>
</clipPath>
</defs>
</svg>
