<svg width="20" height="20" viewBox="0 0 20 20" fill="none" xmlns="http://www.w3.org/2000/svg">
<g clip-path="url(#clip0_166_171)">
<path d="M19.3282 9.66687C18.8854 9.07557 18.2563 8.65076 17.5423 8.46104C17.8903 7.44953 18.1474 6.40903 18.3107 5.35187C18.364 4.96759 18.3274 4.57618 18.2038 4.20844C18.0802 3.84071 17.8729 3.50669 17.5982 3.23268C17.3235 2.95867 16.989 2.75216 16.621 2.62939C16.253 2.50663 15.8615 2.47096 15.4773 2.5252C15.3723 2.53937 15.0607 2.5852 14.6348 2.6677C14.8985 2.08392 15.0234 1.44701 14.9998 0.80687C14.9963 0.697435 14.9713 0.589762 14.9262 0.489997C14.8811 0.390233 14.8168 0.300331 14.7369 0.225425C14.657 0.150519 14.5632 0.092076 14.4608 0.0534324C14.3583 0.0147888 14.2493 -0.00329837 14.1398 0.000203551C14.0304 0.00370547 13.9227 0.0287279 13.823 0.0738422C13.7232 0.118956 13.6333 0.183279 13.5584 0.263137C13.4835 0.342996 13.425 0.436826 13.3864 0.539271C13.3478 0.641716 13.3297 0.750769 13.3332 0.860204C13.3474 1.26276 13.2648 1.66285 13.0923 2.02687C12.9718 1.70158 12.7999 1.39773 12.5832 1.12687C12.2148 0.707618 11.7472 0.387413 11.2231 0.19554C10.699 0.00366647 10.1352 -0.0537514 9.58317 0.0285369C8.97791 0.0771211 8.39937 0.2987 7.91651 0.66687C7.37063 0.256198 6.71022 0.026062 6.02734 0.0085369C5.16083 -0.0754461 4.29634 0.187345 3.62317 0.73937C3.28136 1.04368 3.00539 1.41467 2.81221 1.82954C2.61903 2.24441 2.51273 2.69441 2.49984 3.15187C2.47697 3.88439 2.69024 4.60484 3.10817 5.20687C2.59975 5.64279 2.20509 6.19591 1.95827 6.81848C1.71145 7.44104 1.6199 8.11434 1.69151 8.7802C1.03247 9.14746 0.518875 9.72908 0.236013 10.4285C-0.0468496 11.1279 -0.0819623 11.9031 0.136505 12.6252C0.707346 14.6115 1.76982 16.4217 3.22567 17.8885C4.62234 19.2504 6.49829 20.0088 8.44901 20.0002H11.5507C13.5012 20.0089 15.3769 19.2505 16.7732 17.8885C18.2296 16.422 19.2924 14.6117 19.8632 12.6252C20.012 12.1247 20.0411 11.5962 19.9481 11.0823C19.8552 10.5684 19.6428 10.0836 19.3282 9.66687ZM15.709 4.1752C15.838 4.1578 15.9692 4.17045 16.0925 4.21216C16.2157 4.25388 16.3277 4.32352 16.4196 4.41566C16.5115 4.5078 16.5808 4.61993 16.6222 4.74331C16.6636 4.86668 16.6759 4.99795 16.6582 5.12687C16.4834 6.22119 16.2001 7.29539 15.8123 8.33354H13.6782L14.7557 7.25604C14.9075 7.09887 14.9915 6.88837 14.9896 6.66987C14.9877 6.45137 14.9 6.24236 14.7455 6.08786C14.591 5.93335 14.382 5.84571 14.1635 5.84381C13.945 5.84191 13.7345 5.92591 13.5773 6.0777L11.3215 8.33354H10.0307C9.96981 7.89524 10.0116 7.44881 10.1527 7.02942C10.2939 6.61004 10.5305 6.22918 10.844 5.91687C11.1998 5.5577 12.564 4.58354 15.709 4.1752ZM4.16651 3.2077C4.17151 2.97828 4.22324 2.75229 4.31852 2.54354C4.4138 2.33478 4.55064 2.14764 4.72067 1.99354C5.06448 1.73941 5.4916 1.62452 5.91651 1.67187C6.12174 1.66343 6.32644 1.69849 6.51717 1.77476C6.70789 1.85102 6.88034 1.96676 7.02317 2.11437C7.13562 2.24001 7.2733 2.3405 7.42724 2.40928C7.58118 2.47807 7.7479 2.51359 7.91651 2.51354V2.51354C8.08472 2.51271 8.25088 2.47652 8.40421 2.40732C8.55753 2.33812 8.6946 2.23746 8.80651 2.11187C8.93079 1.9804 9.07994 1.87491 9.24531 1.80152C9.41067 1.72814 9.58896 1.68832 9.76984 1.68437C10.0453 1.6353 10.3286 1.65529 10.5945 1.74255C10.8603 1.82981 11.1004 1.98161 11.2932 2.18437C11.5462 2.50824 11.6782 2.91024 11.6665 3.32104C11.6665 3.3752 11.6665 3.49354 11.6665 3.49354C10.5603 3.89189 9.61525 4.64221 8.97651 5.62937C8.4503 5.00643 7.75015 4.55471 6.9657 4.33202C6.18125 4.10934 5.3482 4.12582 4.57317 4.37937C4.29663 4.05298 4.15164 3.63524 4.16651 3.2077V3.2077ZM3.33317 8.33354C3.33317 7.6705 3.59656 7.03461 4.06541 6.56577C4.53425 6.09693 5.17013 5.83354 5.83317 5.83354C6.49621 5.83354 7.1321 6.09693 7.60094 6.56577C8.06978 7.03461 8.33317 7.6705 8.33317 8.33354H3.33317ZM18.2632 12.1577C17.7653 13.872 16.8489 15.4356 15.5965 16.7077C14.5136 17.7598 13.0604 18.3438 11.5507 18.3335H8.44901C6.93882 18.3434 5.48523 17.7595 4.40151 16.7077C3.14908 15.4356 2.23269 13.872 1.73484 12.1577C1.66013 11.9054 1.64564 11.6391 1.69253 11.3802C1.73942 11.1213 1.84639 10.8769 2.00484 10.6669C2.15858 10.4595 2.35888 10.2911 2.5896 10.1753C2.82033 10.0595 3.07502 9.99955 3.33317 10.0002H16.6665C16.9255 9.99876 17.1812 10.0584 17.4128 10.1742C17.6445 10.29 17.8456 10.4588 17.9998 10.6669C18.1572 10.8775 18.2629 11.1221 18.3087 11.381C18.3544 11.6399 18.3388 11.9059 18.2632 12.1577V12.1577Z" fill="white" fill-opacity="0.3"/>
</g>
<defs>
<clipPath id="clip0_166_171">
<rect width="20" height="20" fill="white"/>
</clipPath>
</defs>
</svg>
