<svg width="20" height="20" viewBox="0 0 20 20" fill="none" xmlns="http://www.w3.org/2000/svg">
<g clip-path="url(#clip0_166_184)">
<path d="M15.8333 4.16616H14.0833C13.8899 3.22567 13.3782 2.38061 12.6344 1.77342C11.8906 1.16623 10.9602 0.834037 10 0.832825H4.16667C3.062 0.834148 2.00296 1.27356 1.22185 2.05467C0.440735 2.83579 0.00132321 3.89483 0 4.99949L0 12.4995C0.00209484 13.2459 0.254615 13.9699 0.717113 14.5557C1.17961 15.1415 1.82533 15.5551 2.55083 15.7303C2.4723 16.1474 2.48572 16.5765 2.59016 16.9878C2.69459 17.3992 2.88753 17.7827 3.1555 18.1118C3.42347 18.4409 3.76001 18.7075 4.14166 18.8931C4.5233 19.0786 4.94084 19.1787 5.36514 19.1863C5.78944 19.1938 6.21029 19.1087 6.5983 18.9369C6.98631 18.765 7.33215 18.5105 7.61168 18.1912C7.8912 17.8719 8.09768 17.4955 8.21671 17.0881C8.33574 16.6808 8.36445 16.2524 8.30083 15.8328H11.7025C11.6811 15.9707 11.6696 16.11 11.6683 16.2495C11.6683 17.023 11.9756 17.7649 12.5226 18.3119C13.0696 18.8589 13.8115 19.1662 14.585 19.1662C15.3585 19.1662 16.1004 18.8589 16.6474 18.3119C17.1944 17.7649 17.5017 17.023 17.5017 16.2495C17.5007 16.0752 17.4837 15.9015 17.4508 15.7303C18.176 15.5548 18.8214 15.141 19.2835 14.5553C19.7457 13.9695 19.998 13.2456 20 12.4995V8.33283C19.9987 7.22816 19.5593 6.16912 18.7782 5.38801C17.997 4.60689 16.938 4.16748 15.8333 4.16616ZM18.3333 8.33283V9.16616H14.1667V5.83283H15.8333C16.4964 5.83283 17.1323 6.09622 17.6011 6.56506C18.0699 7.0339 18.3333 7.66978 18.3333 8.33283ZM1.66667 12.4995V4.99949C1.66667 4.33645 1.93006 3.70057 2.3989 3.23172C2.86774 2.76288 3.50363 2.49949 4.16667 2.49949H10C10.663 2.49949 11.2989 2.76288 11.7678 3.23172C12.2366 3.70057 12.5 4.33645 12.5 4.99949V14.1662H3.33333C2.89131 14.1662 2.46738 13.9906 2.15482 13.678C1.84226 13.3654 1.66667 12.9415 1.66667 12.4995ZM6.66667 16.2495C6.66667 16.581 6.53497 16.899 6.30055 17.1334C6.06613 17.3678 5.74819 17.4995 5.41667 17.4995C5.08515 17.4995 4.7672 17.3678 4.53278 17.1334C4.29836 16.899 4.16667 16.581 4.16667 16.2495C4.16718 16.1071 4.19343 15.9659 4.24417 15.8328H6.58917C6.6399 15.9659 6.66615 16.1071 6.66667 16.2495ZM14.5833 17.4995C14.2518 17.4995 13.9339 17.3678 13.6995 17.1334C13.465 16.899 13.3333 16.581 13.3333 16.2495C13.3337 16.1071 13.36 15.9659 13.4108 15.8328H15.7558C15.8067 15.9659 15.833 16.1071 15.8333 16.2495C15.8333 16.581 15.7016 16.899 15.4672 17.1334C15.2328 17.3678 14.9149 17.4995 14.5833 17.4995ZM16.6667 14.1662H14.1667V10.8328H18.3333V12.4995C18.3333 12.9415 18.1577 13.3654 17.8452 13.678C17.5326 13.9906 17.1087 14.1662 16.6667 14.1662Z" fill="white" fill-opacity="0.3"/>
</g>
<defs>
<clipPath id="clip0_166_184">
<rect width="20" height="20" fill="white"/>
</clipPath>
</defs>
</svg>
