<svg width="98" height="25" viewBox="0 0 98 25" fill="none" xmlns="http://www.w3.org/2000/svg">
<g clip-path="url(#clip0_489_199)">
<path d="M24 23.7852H32" stroke="white" stroke-opacity="0.3" stroke-linecap="round"/>
<path d="M35.0242 23.7241L42.9759 22.8466" stroke="white" stroke-opacity="0.3" stroke-linecap="round"/>
<path d="M46 22.2139L53.764 20.2852" stroke="white" stroke-opacity="0.3" stroke-linecap="round"/>
<path d="M56.4143 19.2236L62.9127 14.5576" stroke="white" stroke-opacity="0.3" stroke-linecap="round"/>
<path d="M65 12.9512L71.4983 8.28517" stroke="white" stroke-opacity="0.3" stroke-linecap="round"/>
<path d="M74 6.50879L81.3217 3.28507" stroke="white" stroke-opacity="0.3" stroke-linecap="round"/>
<path d="M84.0354 2.29346L91.9312 1.00645" stroke="white" stroke-opacity="0.3" stroke-linecap="round"/>
<path d="M95.0114 0.603516L102.989 5.1847e-05" stroke="white" stroke-opacity="0.3" stroke-linecap="round"/>
<g clip-path="url(#clip1_489_199)">
<path d="M9.99985 18.3333C10.3879 18.3341 10.7708 18.2445 11.1182 18.0717L12.7849 17.2383C13.6343 16.8165 14.1702 15.9485 14.1665 15V12.5275C14.1695 11.5799 13.6337 10.7129 12.7849 10.2917L11.1182 9.45838C10.414 9.10838 9.58653 9.10838 8.88235 9.45838L7.21567 10.2917C6.36653 10.7127 5.8304 11.5797 5.83317 12.5275V15C5.83013 15.9479 6.36587 16.8151 7.21485 17.2367L8.88153 18.07C9.2288 18.2434 9.61169 18.3336 9.99985 18.3333ZM7.49985 15V12.5275C7.50118 12.4425 7.51552 12.3582 7.54235 12.2775L9.35903 13.1858C9.76247 13.3875 10.2373 13.3875 10.6407 13.1858L12.4574 12.2775C12.4842 12.3582 12.4986 12.4425 12.4999 12.5275V15C12.5012 15.3162 12.3224 15.6056 12.0391 15.7458L10.3724 16.5792C10.1374 16.6954 9.86157 16.6954 9.62657 16.5792L7.95989 15.7458C7.67681 15.6053 7.49837 15.316 7.49985 15ZM15.8332 23.3333H13.5757L16.4815 20.6483C20.0614 17.0686 20.0615 11.2646 16.4817 7.68471C12.9019 4.10482 7.09798 4.10479 3.5181 7.68451C-0.0617871 11.2642 -0.0618654 17.0683 3.5179 20.6481C3.52575 20.656 6.42403 23.3333 6.42403 23.3333H4.16653C3.7063 23.3333 3.33321 23.7064 3.33321 24.1667C3.33321 24.6269 3.7063 25 4.16653 25H15.8332C16.2934 25 16.6665 24.6269 16.6665 24.1667C16.6665 23.7065 16.2934 23.3333 15.8332 23.3333ZM4.69653 8.86334C7.61903 5.92771 12.368 5.91709 15.3036 8.83959C18.2392 11.7621 18.2499 16.511 15.3274 19.4467L12.0065 22.5142C10.8731 23.5825 9.10161 23.5763 7.97571 22.5L4.69653 19.47C1.77212 16.5392 1.77216 11.7942 4.69653 8.86334Z" fill="white" fill-opacity="0.3"/>
</g>
</g>
<defs>
<clipPath id="clip0_489_199">
<rect width="102.989" height="25" fill="white"/>
</clipPath>
<clipPath id="clip1_489_199">
<rect width="20" height="20" fill="white" transform="translate(0 5)"/>
</clipPath>
</defs>
</svg>
