<svg width="101" height="26" viewBox="0 0 101 26" fill="none" xmlns="http://www.w3.org/2000/svg">
<g clip-path="url(#clip0_489_201)">
<path d="M27 23.7852H35" stroke="white" stroke-opacity="0.3" stroke-linecap="round"/>
<path d="M38.0242 23.7241L45.9759 22.8466" stroke="white" stroke-opacity="0.3" stroke-linecap="round"/>
<path d="M49 22.2139L56.764 20.2852" stroke="white" stroke-opacity="0.3" stroke-linecap="round"/>
<path d="M59.4143 19.2236L65.9127 14.5576" stroke="white" stroke-opacity="0.3" stroke-linecap="round"/>
<path d="M68 12.9512L74.4983 8.28517" stroke="white" stroke-opacity="0.3" stroke-linecap="round"/>
<path d="M77 6.50879L84.3217 3.28507" stroke="white" stroke-opacity="0.3" stroke-linecap="round"/>
<path d="M87.0354 2.29346L94.9312 1.00645" stroke="white" stroke-opacity="0.3" stroke-linecap="round"/>
<path d="M98.0114 0.603516L105.989 5.1847e-05" stroke="white" stroke-opacity="0.3" stroke-linecap="round"/>
<g clip-path="url(#clip1_489_201)">
<path d="M15.8333 10.1661H14.0833C13.8899 9.22561 13.3782 8.38055 12.6344 7.77336C11.8906 7.16617 10.9602 6.83398 10 6.83276H4.16667C3.062 6.83409 2.00296 7.2735 1.22185 8.05461C0.440735 8.83573 0.00132321 9.89477 0 10.9994L0 18.4994C0.00209484 19.2458 0.254615 19.9699 0.717113 20.5556C1.17961 21.1414 1.82533 21.5551 2.55083 21.7303C2.4723 22.1473 2.48572 22.5765 2.59016 22.9878C2.69459 23.3991 2.88753 23.7827 3.1555 24.1117C3.42347 24.4408 3.76001 24.7074 4.14166 24.893C4.5233 25.0786 4.94084 25.1786 5.36514 25.1862C5.78944 25.1938 6.21029 25.1086 6.5983 24.9368C6.98631 24.7649 7.33215 24.5105 7.61168 24.1912C7.8912 23.8719 8.09769 23.4954 8.21671 23.0881C8.33574 22.6807 8.36445 22.2523 8.30083 21.8328H11.7025C11.6811 21.9706 11.6696 22.1099 11.6683 22.2494C11.6683 23.023 11.9756 23.7648 12.5226 24.3118C13.0696 24.8588 13.8115 25.1661 14.585 25.1661C15.3585 25.1661 16.1004 24.8588 16.6474 24.3118C17.1944 23.7648 17.5017 23.023 17.5017 22.2494C17.5007 22.0752 17.4837 21.9014 17.4508 21.7303C18.176 21.5547 18.8214 21.141 19.2835 20.5552C19.7457 19.9695 19.998 19.2456 20 18.4994V14.3328C19.9987 13.2281 19.5593 12.1691 18.7782 11.3879C17.997 10.6068 16.938 10.1674 15.8333 10.1661V10.1661ZM18.3333 14.3328V15.1661H14.1667V11.8328H15.8333C16.4964 11.8328 17.1323 12.0962 17.6011 12.565C18.0699 13.0338 18.3333 13.6697 18.3333 14.3328ZM1.66667 18.4994V10.9994C1.66667 10.3364 1.93006 9.7005 2.3989 9.23166C2.86774 8.76282 3.50363 8.49943 4.16667 8.49943H10C10.663 8.49943 11.2989 8.76282 11.7678 9.23166C12.2366 9.7005 12.5 10.3364 12.5 10.9994V20.1661H3.33333C2.89131 20.1661 2.46738 19.9905 2.15482 19.6779C1.84226 19.3654 1.66667 18.9415 1.66667 18.4994ZM6.66667 22.2494C6.66667 22.581 6.53497 22.8989 6.30055 23.1333C6.06613 23.3677 5.74819 23.4994 5.41667 23.4994C5.08515 23.4994 4.7672 23.3677 4.53278 23.1333C4.29836 22.8989 4.16667 22.581 4.16667 22.2494C4.16718 22.107 4.19343 21.9658 4.24417 21.8328H6.58917C6.6399 21.9658 6.66615 22.107 6.66667 22.2494V22.2494ZM14.5833 23.4994C14.2518 23.4994 13.9339 23.3677 13.6995 23.1333C13.465 22.8989 13.3333 22.581 13.3333 22.2494C13.3337 22.107 13.36 21.9658 13.4108 21.8328H15.7558C15.8067 21.9658 15.833 22.107 15.8333 22.2494C15.8333 22.581 15.7016 22.8989 15.4672 23.1333C15.2328 23.3677 14.9149 23.4994 14.5833 23.4994ZM16.6667 20.1661H14.1667V16.8328H18.3333V18.4994C18.3333 18.9415 18.1577 19.3654 17.8452 19.6779C17.5326 19.9905 17.1087 20.1661 16.6667 20.1661Z" fill="white" fill-opacity="0.3"/>
</g>
</g>
<defs>
<clipPath id="clip0_489_201">
<rect width="105.989" height="26" fill="white"/>
</clipPath>
<clipPath id="clip1_489_201">
<rect width="20" height="20" fill="white" transform="translate(0 6)"/>
</clipPath>
</defs>
</svg>
