<svg width="102" height="25" viewBox="0 0 102 25" fill="none" xmlns="http://www.w3.org/2000/svg">
<g clip-path="url(#clip0_489_200)">
<g clip-path="url(#clip1_489_200)">
<path d="M98.6667 8.33333H94.5C94.5 7.44928 94.1488 6.60143 93.5237 5.97631C92.8986 5.35119 92.0507 5 91.1667 5H85.3333C84.4493 5 83.6014 5.35119 82.9763 5.97631C82.3512 6.60143 82 7.44928 82 8.33333V24.1667C82 24.3877 82.0878 24.5996 82.2441 24.7559C82.4004 24.9122 82.6123 25 82.8333 25C83.0543 25 83.2663 24.9122 83.4226 24.7559C83.5789 24.5996 83.6667 24.3877 83.6667 24.1667V15.8333H90.3333C90.3333 16.7174 90.6845 17.5652 91.3096 18.1904C91.9348 18.8155 92.7826 19.1667 93.6667 19.1667H98.6667C99.5507 19.1667 100.399 18.8155 101.024 18.1904C101.649 17.5652 102 16.7174 102 15.8333V11.6667C102 10.7826 101.649 9.93477 101.024 9.30964C100.399 8.68452 99.5507 8.33333 98.6667 8.33333ZM83.6667 14.1667V8.33333C83.6667 7.89131 83.8423 7.46738 84.1548 7.15482C84.4674 6.84226 84.8913 6.66667 85.3333 6.66667H91.1667C91.6087 6.66667 92.0326 6.84226 92.3452 7.15482C92.6577 7.46738 92.8333 7.89131 92.8333 8.33333V12.5C92.8333 12.942 92.6577 13.366 92.3452 13.6785C92.0326 13.9911 91.6087 14.1667 91.1667 14.1667H83.6667ZM100.333 15.8333C100.333 16.2754 100.158 16.6993 99.8452 17.0118C99.5326 17.3244 99.1087 17.5 98.6667 17.5H93.6667C93.2246 17.5 92.8007 17.3244 92.4882 17.0118C92.1756 16.6993 92 16.2754 92 15.8333V15.715C92.7135 15.5308 93.3458 15.1154 93.7981 14.5337C94.2504 13.952 94.4972 13.2368 94.5 12.5V10H98.6667C99.1087 10 99.5326 10.1756 99.8452 10.4882C100.158 10.8007 100.333 11.2246 100.333 11.6667V15.8333Z" fill="white" fill-opacity="0.3"/>
</g>
<path d="M56 23L63.9517 23.8779" stroke="white" stroke-opacity="0.3" stroke-linecap="round"/>
<path d="M45 20L52.7641 21.9286" stroke="white" stroke-opacity="0.3" stroke-linecap="round"/>
<path d="M36 14L42.4983 18.6661" stroke="white" stroke-opacity="0.3" stroke-linecap="round"/>
<path d="M28 8L34.4983 12.6661" stroke="white" stroke-opacity="0.3" stroke-linecap="round"/>
<path d="M18 3L25.3219 6.22325" stroke="white" stroke-opacity="0.3" stroke-linecap="round"/>
<path d="M7 1L14.8957 2.28732" stroke="white" stroke-opacity="0.3" stroke-linecap="round"/>
<path d="M-4 0L3.97717 0.604007" stroke="white" stroke-opacity="0.3" stroke-linecap="round"/>
<path d="M67 24H75" stroke="white" stroke-opacity="0.3" stroke-linecap="round"/>
</g>
<defs>
<clipPath id="clip0_489_200">
<rect width="106" height="25" fill="white" transform="translate(-4)"/>
</clipPath>
<clipPath id="clip1_489_200">
<rect width="20" height="20" fill="white" transform="translate(82 5)"/>
</clipPath>
</defs>
</svg>
