<svg width="102" height="27" viewBox="0 0 102 27" fill="none" xmlns="http://www.w3.org/2000/svg">
<g clip-path="url(#clip0_489_205)">
<path d="M56 23L63.9517 23.8779" stroke="white" stroke-opacity="0.3" stroke-linecap="round"/>
<path d="M45 20L52.7641 21.9286" stroke="white" stroke-opacity="0.3" stroke-linecap="round"/>
<path d="M36 14L42.4983 18.6661" stroke="white" stroke-opacity="0.3" stroke-linecap="round"/>
<path d="M28 8L34.4983 12.6661" stroke="white" stroke-opacity="0.3" stroke-linecap="round"/>
<path d="M18 3L25.3219 6.22325" stroke="white" stroke-opacity="0.3" stroke-linecap="round"/>
<path d="M7 1L14.8957 2.28732" stroke="white" stroke-opacity="0.3" stroke-linecap="round"/>
<path d="M-4 0L3.97717 0.604007" stroke="white" stroke-opacity="0.3" stroke-linecap="round"/>
<path d="M67 24H75" stroke="white" stroke-opacity="0.3" stroke-linecap="round"/>
<g clip-path="url(#clip1_489_205)">
<path d="M100.047 11.5159L94.4791 7.75844C93.7479 7.26138 92.8841 6.99561 91.9999 6.99561C91.1158 6.99561 90.252 7.26138 89.5208 7.75844L83.9533 11.5151C83.3514 11.9204 82.8584 12.4675 82.5178 13.1083C82.1772 13.749 81.9993 14.4636 81.9999 15.1893V22.5684C82.0013 23.7434 82.4686 24.8698 83.2994 25.7006C84.1302 26.5314 85.2567 26.9988 86.4316 27.0001H97.5683C98.7432 26.9988 99.8697 26.5314 100.7 25.7006C101.531 24.8698 101.999 23.7434 102 22.5684V15.1893C102.001 14.4637 101.823 13.7492 101.482 13.1086C101.142 12.468 100.649 11.921 100.047 11.5159V11.5159ZM99.4999 22.5684C99.4993 23.0805 99.2956 23.5715 98.9334 23.9336C98.5713 24.2957 98.0804 24.4994 97.5683 24.5001H86.4316C85.9195 24.4994 85.4286 24.2957 85.0664 23.9336C84.7043 23.5715 84.5006 23.0805 84.4999 22.5684V15.1893C84.4998 14.873 84.5772 14.5616 84.7256 14.2823C84.874 14.003 85.0886 13.7645 85.3508 13.5876L90.9166 9.83344C91.2355 9.61734 91.6118 9.50182 91.997 9.50182C92.3822 9.50182 92.7586 9.61734 93.0774 9.83344L98.6458 13.5918C98.9081 13.7677 99.1232 14.0054 99.2721 14.284C99.4211 14.5625 99.4993 14.8734 99.4999 15.1893V22.5684ZM91.9999 13.6668C91.1759 13.6668 90.3704 13.9111 89.6852 14.3689C89 14.8267 88.466 15.4774 88.1506 16.2387C87.8352 16.9999 87.7526 17.8377 87.9133 18.6459C88.074 19.4541 88.4707 20.1965 89.0533 20.7793L91.2608 22.9384C91.4584 23.1315 91.7237 23.2397 91.9999 23.2397C92.2762 23.2397 92.5415 23.1315 92.7391 22.9384L94.9458 20.7793C95.5283 20.1966 95.925 19.4542 96.0857 18.6461C96.2464 17.8379 96.1639 17.0003 95.8486 16.239C95.5333 15.4778 94.9994 14.8271 94.3144 14.3693C93.6293 13.9114 92.8239 13.6669 91.9999 13.6668V13.6668ZM91.9999 19.1284C91.7527 19.1284 91.511 19.0551 91.3055 18.9178C91.0999 18.7804 90.9397 18.5852 90.8451 18.3568C90.7505 18.1284 90.7257 17.8771 90.774 17.6346C90.8222 17.3921 90.9412 17.1694 91.1161 16.9946C91.2909 16.8197 91.5136 16.7007 91.7561 16.6525C91.9986 16.6042 92.2499 16.629 92.4783 16.7236C92.7067 16.8182 92.9019 16.9784 93.0393 17.184C93.1766 17.3895 93.2499 17.6312 93.2499 17.8784C93.2499 18.21 93.1182 18.5279 92.8838 18.7623C92.6494 18.9967 92.3315 19.1284 91.9999 19.1284V19.1284Z" fill="white" fill-opacity="0.3"/>
</g>
</g>
<defs>
<clipPath id="clip0_489_205">
<rect width="106" height="27" fill="white" transform="translate(-4)"/>
</clipPath>
<clipPath id="clip1_489_205">
<rect width="20" height="20" fill="white" transform="translate(82 7)"/>
</clipPath>
</defs>
</svg>
