<svg width="75" height="75" viewBox="0 0 75 75" fill="none" xmlns="http://www.w3.org/2000/svg">
    <path d="M0 37.5C0 16.7893 16.7893 0 37.5 0C58.2107 0 75 16.7893 75 37.5C75 58.2107 58.2107 75 37.5 75C16.7893 75 0 58.2107 0 37.5Z" fill="white"/>
        <g clip-path="url(#clip0_195_129)">
    <path d="M50.7919 22.597C48.6802 20.8397 46.2274 19.5389 43.5882 18.7765C40.9489 18.014 38.1803 17.8065 35.4569 18.167C30.4186 18.8215 25.8183 21.3689 22.5901 25.292C19.3618 29.215 17.7475 34.2197 18.0751 39.2897C18.4026 44.3597 20.6474 49.115 24.3536 52.59C28.0598 56.0651 32.9496 57.9995 38.0302 58.0003H49.6669C51.8762 57.9976 53.9943 57.1188 55.5565 55.5566C57.1187 53.9944 57.9976 51.8763 58.0002 49.667V36.8486V36.7436C57.8238 34.0194 57.0936 31.3597 55.8542 28.9273C54.6148 26.4949 52.8922 24.3409 50.7919 22.597ZM31.3335 29.667H38.0002C38.4422 29.667 38.8662 29.8426 39.1787 30.1551C39.4913 30.4677 39.6669 30.8916 39.6669 31.3336C39.6669 31.7757 39.4913 32.1996 39.1787 32.5121C38.8662 32.8247 38.4422 33.0003 38.0002 33.0003H31.3335C30.8915 33.0003 30.4676 32.8247 30.155 32.5121C29.8425 32.1996 29.6669 31.7757 29.6669 31.3336C29.6669 30.8916 29.8425 30.4677 30.155 30.1551C30.4676 29.8426 30.8915 29.667 31.3335 29.667ZM44.6669 46.3336H31.3335C30.8915 46.3336 30.4676 46.158 30.155 45.8455C29.8425 45.5329 29.6669 45.109 29.6669 44.667C29.6669 44.2249 29.8425 43.801 30.155 43.4884C30.4676 43.1759 30.8915 43.0003 31.3335 43.0003H44.6669C45.1089 43.0003 45.5328 43.1759 45.8454 43.4884C46.1579 43.801 46.3335 44.2249 46.3335 44.667C46.3335 45.109 46.1579 45.5329 45.8454 45.8455C45.5328 46.158 45.1089 46.3336 44.6669 46.3336ZM44.6669 39.667H31.3335C30.8915 39.667 30.4676 39.4914 30.155 39.1788C29.8425 38.8662 29.6669 38.4423 29.6669 38.0003C29.6669 37.5583 29.8425 37.1343 30.155 36.8218C30.4676 36.5092 30.8915 36.3336 31.3335 36.3336H44.6669C45.1089 36.3336 45.5328 36.5092 45.8454 36.8218C46.1579 37.1343 46.3335 37.5583 46.3335 38.0003C46.3335 38.4423 46.1579 38.8662 45.8454 39.1788C45.5328 39.4914 45.1089 39.667 44.6669 39.667Z" fill="#EEAC92"/>
    </g>
    <defs>
        <clipPath id="clip0_195_129">
            <rect width="40" height="40" fill="white" transform="translate(18 18)"/>
        </clipPath>
    </defs>
</svg>
