<svg width="44" height="45" viewBox="0 0 44 45" fill="none" xmlns="http://www.w3.org/2000/svg">
<path d="M43.9969 22.0079C43.9969 33.1222 35.7608 42.3106 25.0614 43.8016C24.061 43.9404 23.0374 44.0129 21.9985 44.0129C20.7992 44.0129 19.6215 43.9173 18.4746 43.7323C8.00028 42.0454 0 32.9603 0 22.0079C0 9.85442 9.85006 0.00146484 22 0.00146484C34.1499 0.00146484 44 9.85442 44 22.0079H43.9969Z" fill="white"/>
<path d="M25.0614 17.6721V22.466H30.9899L30.0512 28.9236H25.0614V43.8017C24.061 43.9405 23.0374 44.013 21.9985 44.013C20.7992 44.013 19.6215 43.9174 18.4746 43.7324V28.9236H13.007V22.466H18.4746V16.6005C18.4746 12.9615 21.4235 10.0103 25.0629 10.0103V10.0133C25.0737 10.0133 25.083 10.0103 25.0938 10.0103H30.9915V15.5951H27.1378C25.9924 15.5951 25.0629 16.5249 25.0629 17.6706L25.0614 17.6721Z" fill="black"/>
</svg>
