<svg width="44" height="45" viewBox="0 0 44 45" fill="none" xmlns="http://www.w3.org/2000/svg">
<path d="M22.0501 0H21.9499C9.82731 0 0 9.8302 0 21.9564V22.0566C0 34.1828 9.82731 44.013 21.9499 44.013H22.0501C34.1727 44.013 44 34.1828 44 22.0566V21.9564C44 9.8302 34.1727 0 22.0501 0Z" fill="white"/>
<path d="M28.8082 8.9541H15.1934C11.432 8.9541 8.37207 12.0149 8.37207 15.7774V28.2367C8.37207 31.9991 11.432 35.06 15.1934 35.06H28.8082C32.5695 35.06 35.6295 31.9991 35.6295 28.2367V15.7774C35.6295 12.0149 32.5695 8.9541 28.8082 8.9541ZM10.7784 15.7774C10.7784 13.3426 12.7593 11.3611 15.1934 11.3611H28.8082C31.2423 11.3611 33.2231 13.3426 33.2231 15.7774V28.2367C33.2231 30.6715 31.2423 32.6529 28.8082 32.6529H15.1934C12.7593 32.6529 10.7784 30.6715 10.7784 28.2367V15.7774Z" fill="black"/>
<path d="M22.0008 28.3523C25.4985 28.3523 28.3457 25.5058 28.3457 22.0055C28.3457 18.5052 25.5001 15.6587 22.0008 15.6587C18.5015 15.6587 15.6558 18.5052 15.6558 22.0055C15.6558 25.5058 18.5015 28.3523 22.0008 28.3523ZM22.0008 18.0673C24.1728 18.0673 25.9394 19.8344 25.9394 22.0071C25.9394 24.1797 24.1728 25.9468 22.0008 25.9468C19.8288 25.9468 18.0622 24.1797 18.0622 22.0071C18.0622 19.8344 19.8288 18.0673 22.0008 18.0673Z" fill="black"/>
<path d="M28.933 16.6838C29.8749 16.6838 30.6426 15.9174 30.6426 14.9737C30.6426 14.03 29.8764 13.2637 28.933 13.2637C27.9896 13.2637 27.2234 14.03 27.2234 14.9737C27.2234 15.9174 27.9896 16.6838 28.933 16.6838Z" fill="black"/>
</svg>
