<svg width="44" height="45" viewBox="0 0 44 45" fill="none" xmlns="http://www.w3.org/2000/svg">
<path d="M22.0501 0H21.9499C9.82732 0 0 9.8302 0 21.9564V22.0566C0 34.1827 9.82732 44.0129 21.9499 44.0129H22.0501C34.1727 44.0129 44 34.1827 44 22.0566V21.9564C44 9.8302 34.1727 0 22.0501 0Z" fill="white"/>
<path d="M10.4932 14.6285C9.91361 14.0903 9.62537 13.4242 9.62537 12.6316C9.62537 11.839 9.91516 11.1436 10.4932 10.6039C11.0728 10.0657 11.819 9.7959 12.7331 9.7959C13.6472 9.7959 14.364 10.0657 14.9421 10.6039C15.5217 11.1421 15.81 11.819 15.81 12.6316C15.81 13.4442 15.5202 14.0903 14.9421 14.6285C14.3625 15.1666 13.6272 15.4365 12.7331 15.4365C11.839 15.4365 11.0728 15.1666 10.4932 14.6285ZM15.3229 17.7155V34.2148H10.1109V17.7155H15.3229Z" fill="black"/>
<path d="M32.6728 19.345C33.8089 20.5786 34.3762 22.2717 34.3762 24.4274V33.923H29.4263V25.0966C29.4263 24.0095 29.1442 23.1645 28.5816 22.5631C28.0189 21.9618 27.2605 21.6595 26.3109 21.6595C25.3613 21.6595 24.6028 21.9602 24.0402 22.5631C23.4775 23.1645 23.1954 24.0095 23.1954 25.0966V33.923H18.2163V17.6689H23.1954V19.8246C23.6995 19.106 24.3794 18.5386 25.2334 18.1207C26.0874 17.7028 27.0477 17.4946 28.116 17.4946C30.0183 17.4946 31.5382 18.1114 32.6728 19.3435V19.345Z" fill="black"/>
</svg>
