<svg width="44" height="45" viewBox="0 0 44 45" fill="none" xmlns="http://www.w3.org/2000/svg">
<path d="M43.9969 22.0079C43.9969 33.1222 35.7608 42.3106 25.0614 43.8017C24.061 43.9404 23.0374 44.0129 21.9985 44.0129C20.7992 44.0129 19.6215 43.9173 18.4746 43.7323C8.00028 42.0454 0 32.9603 0 22.0079C0 9.85442 9.85005 0.00146484 22 0.00146484C34.1499 0.00146484 44 9.85442 44 22.0079H43.9969Z" fill="white"/>
<path d="M8.92209 9.70801L19.0681 23.277L8.85889 34.3096H11.1572L20.0963 24.6509L27.3181 34.3096H35.138L24.4217 19.9773L33.9249 9.70801H31.6265L23.395 18.6034L16.7436 9.70801H8.92362H8.92209ZM12.301 11.401H15.8927L31.756 32.6165H28.1644L12.301 11.401Z" fill="black"/>
</svg>
